#!OML:ASF F:\VICON\USERDATA\INSTALL\rory3\rory3.ASF
:FULLY-SPECIFIED
:DEGREES
431
root -0.416096 19.5565 2.85411 -28.029 49.1594 -44.8242
lowerback 4.24724 3.07945 19.2207
upperback -2.673 6.39051 10.7771
thorax -4.68647 2.94613 0.487081
lowerneck -18.644 6.03355 10.2873
upperneck 34.2923 9.17238 -8.08418
head 16.3106 4.32651 -3.43115
rclavicle -6.48535e-014 7.95139e-015
rhumerus 83.0109 -4.56836 -43.1575
rradius 74.1023
rwrist -59.9501
rhand -4.44677 19.8826
rfingers 7.12502
rthumb 21.3249 -8.9641
lclavicle -6.48535e-014 7.95139e-015
lhumerus 79.111 13.4536 16.62
lradius 52.9331
lwrist -37.2236
lhand -6.62616 16.9933
lfingers 7.12502
lthumb 19.2303 46.0625
rfemur 136.816 -230.413 -245.227
rtibia 36.9778
rfoot -84.6315 25.0154
rtoes 63.1312
lfemur -19.2978 -19.8284 8.74278
ltibia 14.0361
lfoot 15.1572 35.0636
ltoes 32.7453
432
root -0.420544 19.8889 3.04789 -32.2255 51.5808 -51.211
lowerback 2.23442 3.31862 19.8145
upperback -3.73991 6.59983 11.7835
thorax -4.81411 3.08045 1.40599
lowerneck -17.5242 6.11196 12.1552
upperneck 34.0285 9.6085 -10.1251
head 16.2521 4.55316 -4.58673
rclavicle -2.96686e-014 -9.06458e-014
rhumerus 83.2717 -7.24076 -42.5257
rradius 74.8174
rwrist -61.6233
rhand -4.91033 19.3766
rfingers 7.12502
rthumb 20.8796 -9.51982
lclavicle -2.96686e-014 -9.06458e-014
lhumerus 80.2502 15.5214 16.5349
lradius 53.4616
lwrist -37.4653
lhand -6.44552 15.0632
lfingers 7.12502
lthumb 19.404 44.115
rfemur 143.006 -232.648 -238.389
rtibia 36.5768
rfoot -86.4696 25.4332
rtoes 63.1339
lfemur -20.7694 -23.1359 12.4507
ltibia 11.3437
lfoot -22.4616 38.7599
ltoes 44.7078
433
root -0.44825 20.2199 3.23192 -38.6238 52.3024 -60.4903
lowerback 0.590946 3.46749 22.62
upperback -4.96674 6.99243 12.9397
thorax -5.23595 3.23204 1.41644
lowerneck -17.8512 6.70738 11.8512
upperneck 34.9835 10.6591 -9.6748
head 16.9418 5.04014 -4.13098
rclavicle 7.13637e-014 2.62396e-014
rhumerus 83.9423 -9.63113 -42.4615
rradius 75.0318
rwrist -63.5445
rhand -5.8088 18.6479
rfingers 7.12502
rthumb 20.0161 -10.3412
lclavicle 7.13637e-014 2.62396e-014
lhumerus 81.0217 17.5266 15.9021
lradius 54.177
lwrist -37.9021
lhand -5.37964 8.02392
lfingers 7.12502
lthumb 20.4286 36.9693
rfemur 148.868 -233.32 -229.024
rtibia 36.1226
rfoot -86.8987 25.7625
rtoes 63.138
lfemur -23.3163 -25.7044 18.6928
ltibia 10.2634
lfoot -40.0028 26.9211
ltoes 50.5128
434
root -0.439531 20.5069 3.45594 -41.8569 55.9562 -64.066
lowerback -0.615357 3.52919 20.2468
upperback -5.85791 6.85314 12.6267
thorax -5.69192 3.21852 2.29995
lowerneck -17.5445 7.35268 11.9968
upperneck 35.0744 11.5951 -9.2925
head 17.0454 5.52691 -3.77671
rclavicle 8.39865e-014 4.6118e-014
rhumerus 84.5593 -12.3453 -42.9068
rradius 74.6913
rwrist -65.4602
rhand -6.77549 17.7571
rfingers 7.12502
rthumb 19.0867 -11.3264
lclavicle 8.39865e-014 4.6118e-014
lhumerus 80.8321 20.425 14.4789
lradius 55.9815
lwrist -37.9686
lhand -5.15746 8.26874
lfingers 7.12502
lthumb 20.6421 37.1911
rfemur 156.692 -231.491 -222.85
rtibia 35.7303
rfoot -84.8283 21.3921
rtoes 63.0056
lfemur -23.151 -23.7689 15.7489
ltibia 9.12773
lfoot -39.0799 27.5355
ltoes 50.1091
435
root -0.440575 20.7911 3.67563 -46.2934 58.6964 -68.9848
lowerback -1.5701 3.74414 18.5589
upperback -6.58255 7.03468 12.4072
thorax -6.04142 3.37325 2.95658
lowerneck -16.2788 7.76993 13.494
upperneck 33.5958 12.4304 -11.0437
head 16.4205 5.89928 -4.62119
rclavicle 8.32411e-014 2.14687e-014
rhumerus 85.3981 -15.4287 -43.1773
rradius 74.0095
rwrist -67.4589
rhand -7.91612 16.8922
rfingers 7.12502
rthumb 17.9895 -12.2958
lclavicle 8.32411e-014 2.14687e-014
lhumerus 83.4412 22.2544 15.61
lradius 55.1572
lwrist -41.5283
lhand -5.0187 8.92813
lfingers 7.12502
lthumb 20.7754 37.8359
rfemur 163.145 -229.983 -216.967
rtibia 35.1146
rfoot -82.9448 19.9964
rtoes 63.1602
lfemur -23.0547 -21.4469 13.8208
ltibia 8.2789
lfoot -39.5924 34.2034
ltoes 50.4926
436
root -0.44465 21.0659 3.8882 -50.7558 60.7836 -73.7969
lowerback -2.4692 4.12524 16.909
upperback -6.83725 7.37417 12.2978
thorax -5.90014 3.65583 3.73548
lowerneck -15.4652 8.42484 13.9607
upperneck 32.1595 13.7192 -12.3031
head 15.929 6.3811 -4.94158
rclavicle -1.44616e-014 -3.18055e-015
rhumerus 86.6743 -18.9054 -43.6263
rradius 73.2836
rwrist -69.33
rhand -8.80094 15.3425
rfingers 7.12502
rthumb 17.138 -13.9217
lclavicle -1.44616e-014 -3.18055e-015
lhumerus 81.5548 26.1765 15.2622
lradius 57.5647
lwrist -38.8308
lhand -7.53466 14.992
lfingers 7.12502
lthumb 18.3565 44.1459
rfemur 167.845 -227.219 -212.275
rtibia 34.3938
rfoot -80.9235 15.7364
rtoes 63.2981
lfemur -22.7632 -18.7186 11.646
ltibia 8.22263
lfoot -45.7162 38.3642
ltoes 48.3541
437
root -0.448402 21.3172 4.09402 -54.7914 62.7408 -77.9728
lowerback -3.10984 4.62648 14.8826
upperback -7.03401 7.99791 12.4247
thorax -5.94422 4.11693 4.96603
lowerneck -15.9416 9.4488 12.0406
upperneck 32.5188 15.8104 -11.6359
head 16.3272 7.11028 -3.8344
rclavicle 1.88845e-015 5.40694e-014
rhumerus 89.0385 -20.665 -43.76
rradius 71.5379
rwrist -69.7071
rhand -10.7512 14.0244
rfingers 7.12502
rthumb 15.2602 -15.3927
lclavicle 1.88845e-015 5.40694e-014
lhumerus 82.2877 29.1182 17.346
lradius 57.4278
lwrist -38.521
lhand -8.59865 31.5011
lfingers 7.12502
lthumb 17.3327 60.7483
rfemur 171.159 -223.147 -209.186
rtibia 33.5448
rfoot -77.2759 9.59678
rtoes 62.9947
lfemur -22.6711 -15.8338 8.60228
ltibia 9.64592
lfoot -50.3553 40.1292
ltoes 45.9618
438
root -0.44788 21.5445 4.29708 -59.0526 64.4405 -82.4449
lowerback -3.82012 4.96015 13.0667
upperback -7.29857 8.33566 12.0837
thorax -5.95669 4.38433 5.59725
lowerneck -16.3395 9.41547 14.4701
upperneck 32.1143 15.7827 -13.87
head 16.7928 7.13559 -5.22462
rclavicle -5.69518e-014 -2.38542e-014
rhumerus 89.668 -23.5293 -44.118
rradius 71.5627
rwrist -71.6139
rhand -13.8026 14.0301
rfingers 7.12502
rthumb 12.3195 -15.587
lclavicle -5.69518e-014 -2.38542e-014
lhumerus 82.8109 31.3973 19.1384
lradius 57.7939
lwrist -40.4024
lhand -7.3859 6.26825
lfingers 7.12502
lthumb 18.4996 35.4086
rfemur 173.716 -219.105 -206.644
rtibia 32.6921
rfoot -72.6555 4.01444
rtoes 63.5377
lfemur -23.0231 -12.8531 5.45215
ltibia 11.9901
lfoot -46.4955 42.9042
ltoes 46.0468
439
root -0.429757 21.7532 4.4967 -63.6637 65.001 -87.6768
lowerback -5.13025 5.50828 12.0677
upperback -7.59092 8.90255 11.8424
thorax -5.62576 4.76176 5.99886
lowerneck -17.009 9.37558 16.4654
upperneck 32.214 15.597 -15.2802
head 17.4045 7.14008 -6.27031
rclavicle -9.34288e-015 -4.77083e-015
rhumerus 90.6837 -25.9632 -44.971
rradius 70.8346
rwrist -73.1885
rhand -16.023 14.5668
rfingers 7.12502
rthumb 10.178 -15.167
lclavicle -9.34288e-015 -4.77083e-015
lhumerus 84.0614 32.9683 21.6463
lradius 57.4308
lwrist -41.5771
lhand -8.53666 8.56466
lfingers 7.12502
lthumb 17.3924 37.8065
rfemur 175.274 -215.558 -203.547
rtibia 31.9632
rfoot -68.8541 -1.75965
rtoes 63.1923
lfemur -23.8059 -8.79225 3.16122
ltibia 14.8739
lfoot -38.4471 46.3952
ltoes 45.1102
440
root -0.408644 21.9441 4.68125 -69.1253 65.1797 -93.8083
lowerback -6.43107 5.98985 11.4132
upperback -8.02019 9.48991 11.8037
thorax -5.4857 5.15813 6.45816
lowerneck -18.3795 9.33438 17.6468
upperneck 33.5954 15.6115 -15.9655
head 18.7936 7.23761 -6.8972
rclavicle -4.6118e-014 -1.27222e-014
rhumerus 91.3134 -28.3914 -45.5877
rradius 70.1781
rwrist -75.6868
rhand -17.022 15.211
rfingers 7.12502
rthumb 9.21411 -14.5677
lclavicle -4.6118e-014 -1.27222e-014
lhumerus 85.5407 33.611 24.8817
lradius 56.4727
lwrist -40.9304
lhand -8.65745 12.9272
lfingers 7.12502
lthumb 17.2762 42.1793
rfemur 177.284 -214.649 -199.32
rtibia 31.376
rfoot -66.9674 -4.34288
rtoes 62.8474
lfemur -24.8266 -5.51668 1.29732
ltibia 17.9597
lfoot -30.6374 48.2814
ltoes 46.2236
441
root -0.378585 22.1354 4.85243 -74.9711 64.8582 -100.42
lowerback -7.8178 6.28709 11.1437
upperback -8.51283 9.81859 11.6729
thorax -5.30376 5.40079 6.63033
lowerneck -20.2706 9.38244 18.6634
upperneck 35.4069 15.5151 -15.8652
head 21.0953 7.4665 -7.40526
rclavicle 4.83047e-014 -6.36111e-015
rhumerus 92.1882 -30.3165 -46.883
rradius 69.3713
rwrist -77.8537
rhand -17.0351 16.1957
rfingers 7.12502
rthumb 9.2015 -13.5835
lclavicle 4.83047e-014 -6.36111e-015
lhumerus 86.1043 34.1861 27.4874
lradius 56.2739
lwrist -39.7628
lhand -10.7842 10.3008
lfingers 7.12502
lthumb 15.2283 39.7203
rfemur 178.419 -211.529 -195.443
rtibia 31.0309
rfoot -63.2724 -10.2401
rtoes 62.7605
lfemur -25.9476 -3.2097 -0.0217527
ltibia 20.9279
lfoot -16.6224 51.3751
ltoes 41.3623
442
root -0.342816 22.3272 5.03964 -80.8335 63.6408 -107.052
lowerback -9.24202 6.42345 11.1812
upperback -9.00093 9.93861 11.6414
thorax -5.07895 5.53767 6.75629
lowerneck -21.3596 9.31191 19.2057
upperneck 37.1535 15.3535 -15.3568
head 22.8139 7.67587 -7.50054
rclavicle 1.77912e-014 -9.54166e-014
rhumerus 93.3072 -31.4671 -48.7473
rradius 68.4379
rwrist -78.11
rhand -17.0202 16.6277
rfingers 7.12502
rthumb 9.21588 -13.1509
lclavicle 1.77912e-014 -9.54166e-014
lhumerus 87.1446 35.0324 29.437
lradius 55.007
lwrist -38.7213
lhand -12.6996 9.02219
lfingers 7.12502
lthumb 13.3828 38.5724
rfemur 179.162 -208.624 -190.814
rtibia 30.8649
rfoot -59.6058 -15.8619
rtoes 62.6874
lfemur -26.9525 -1.15798 -0.496064
ltibia 23.6946
lfoot -1.8727 51.5487
ltoes 37.6183
443
root -0.322859 22.4899 5.22985 -86.566 61.7521 -113.371
lowerback -10.4538 6.41344 11.6335
upperback -9.40681 9.886 11.7488
thorax -4.85676 5.57629 6.78481
lowerneck -21.3297 9.10658 18.6298
upperneck 38.1848 15.134 -14.2026
head 23.1829 7.70649 -6.86419
rclavicle -8.64713e-015 6.20208e-014
rhumerus 94.6554 -32.0824 -50.9026
rradius 67.7271
rwrist -77.7493
rhand -16.8973 16.2542
rfingers 7.12502
rthumb 9.3344 -13.5191
lclavicle -8.64713e-015 6.20208e-014
lhumerus 88.0429 35.9089 31.1152
lradius 53.2173
lwrist -38.4034
lhand -15.7993 8.43806
lfingers 7.12502
lthumb 10.3938 38.1612
rfemur 179.793 -206.223 -185.607
rtibia 30.9428
rfoot -56.0332 -20.9785
rtoes 62.3529
lfemur -27.5165 0.163156 -0.381332
ltibia 26.1911
lfoot 0.714972 50.1034
ltoes 39.2617
